<mxfile host="Electron" modified="2024-01-13T21:04:10.645Z" agent="Mozilla/5.0 (Windows NT 10.0; Win64; x64) AppleWebKit/537.36 (KHTML, like Gecko) draw.io/22.1.18 Chrome/120.0.6099.199 Electron/28.1.2 Safari/537.36" etag="86tAGt1k2TBUtZ_BB1Bz" version="22.1.18" type="device">
  <diagram name="Strona-1" id="OZjFsq6HEsXJ0vkOd96a">
    <mxGraphModel dx="1992" dy="1245" grid="1" gridSize="10" guides="1" tooltips="1" connect="1" arrows="1" fold="1" page="1" pageScale="1" pageWidth="827" pageHeight="1169" math="0" shadow="0">
      <root>
        <mxCell id="0" />
        <mxCell id="1" parent="0" />
        <mxCell id="PTmPjNA2xMps1Y_KjTwl-4" value="" style="edgeStyle=orthogonalEdgeStyle;rounded=0;orthogonalLoop=1;jettySize=auto;html=1;" parent="1" source="PTmPjNA2xMps1Y_KjTwl-1" target="PTmPjNA2xMps1Y_KjTwl-3" edge="1">
          <mxGeometry relative="1" as="geometry" />
        </mxCell>
        <mxCell id="PTmPjNA2xMps1Y_KjTwl-1" value="&lt;b&gt;Jakość usługi (Service quality)&lt;/b&gt;" style="ellipse;whiteSpace=wrap;html=1;" parent="1" vertex="1">
          <mxGeometry x="80" y="80" width="130" height="80" as="geometry" />
        </mxCell>
        <mxCell id="PTmPjNA2xMps1Y_KjTwl-5" style="edgeStyle=orthogonalEdgeStyle;rounded=0;orthogonalLoop=1;jettySize=auto;html=1;entryX=0;entryY=0.5;entryDx=0;entryDy=0;" parent="1" source="PTmPjNA2xMps1Y_KjTwl-2" target="PTmPjNA2xMps1Y_KjTwl-3" edge="1">
          <mxGeometry relative="1" as="geometry" />
        </mxCell>
        <mxCell id="PTmPjNA2xMps1Y_KjTwl-2" value="&lt;b&gt;Poświęcenie (&lt;i&gt;Sacrifice&lt;/i&gt;)&lt;/b&gt;" style="ellipse;whiteSpace=wrap;html=1;" parent="1" vertex="1">
          <mxGeometry x="80" y="240" width="130" height="80" as="geometry" />
        </mxCell>
        <mxCell id="PTmPjNA2xMps1Y_KjTwl-7" value="" style="edgeStyle=orthogonalEdgeStyle;rounded=0;orthogonalLoop=1;jettySize=auto;html=1;" parent="1" source="PTmPjNA2xMps1Y_KjTwl-3" target="PTmPjNA2xMps1Y_KjTwl-6" edge="1">
          <mxGeometry relative="1" as="geometry" />
        </mxCell>
        <mxCell id="PTmPjNA2xMps1Y_KjTwl-3" value="&lt;b&gt;Wartość &lt;br&gt;(&lt;i&gt;Value&lt;/i&gt;)&lt;/b&gt;" style="ellipse;whiteSpace=wrap;html=1;" parent="1" vertex="1">
          <mxGeometry x="280" y="160" width="130" height="80" as="geometry" />
        </mxCell>
        <mxCell id="PTmPjNA2xMps1Y_KjTwl-6" value="&lt;b&gt;Intencja zakupu (&lt;i&gt;Purchase intention&lt;/i&gt;)&lt;/b&gt;" style="ellipse;whiteSpace=wrap;html=1;" parent="1" vertex="1">
          <mxGeometry x="480" y="160" width="130" height="80" as="geometry" />
        </mxCell>
      </root>
    </mxGraphModel>
  </diagram>
</mxfile>
